<svg xmlns="http://www.w3.org/2000/svg" xmlns:v="https://svgstorm.com"
viewBox = "0 0 300 300"
width="300"
height="300">
<g fill="None" fill-opacity="0.0" stroke="#000000" stroke-opacity="0.00" stroke-width="0.3"><path d="
M 0.00 132.00 
C 6.99 65.41 65.48 6.98 132.00 0.00
L 0.00 0.00
L 0.00 132.00 Z"/>
</g>
<g fill="None" fill-opacity="0.0" stroke="#55C503" stroke-opacity="0.99" stroke-width="0.3"><path d="
M 0.00 132.00 
L 0.00 168.00
C 6.99 234.59 65.48 293.02 132.00 300.00
L 168.00 300.00
C 197.39 294.13 231.12 284.44 252.00 260.00
C 253.65 258.06 255.57 256.04 257.00 254.00
C 243.26 251.75 230.29 239.32 223.00 228.00
C 214.72 234.50 208.96 239.99 198.92 243.92 C 188.89 247.85 177.18 250.66 166.00 252.00 C 154.82 253.33 139.18 254.88 128.00 253.00 C 116.82 251.12 105.94 248.55 96.31 243.69 C 86.67 238.84 80.10 234.21 72.75 226.25 C 65.41 218.29 61.69 210.38 57.68 200.32 C 53.67 190.27 51.86 177.19 51.00 166.00 C 50.14 154.81 53.60 139.86 55.93 129.93 C 58.25 119.99 66.07 108.57 65.22 99.78 C 64.37 90.99 54.67 72.03 66.03 70.03 C 77.38 68.02 86.74 80.58 95.75 71.75 C 104.77 62.92 113.35 63.27 123.68 58.68 C 134.01 54.08 149.46 54.92 160.01 55.99 C 170.56 57.06 182.79 65.01 191.08 58.08 C 199.37 51.15 213.40 44.17 215.00 57.00 C 216.60 69.83 213.68 82.28 221.75 91.25 C 229.82 100.22 232.08 107.00 236.93 117.07 C 241.77 127.15 245.02 137.72 246.00 149.00 C 246.97 160.28 249.20 175.96 244.67 186.67 C 240.15 197.38 240.38 207.09 250.25 214.75 C 260.12 222.42 272.93 212.24 283.00 221.00
C 292.07 204.54 296.75 185.94 300.00 168.00
L 300.00 132.00
C 293.01 65.41 234.52 6.98 168.00 0.00
L 132.00 0.00
C 65.48 6.98 6.99 65.41 0.00 132.00 Z"/>
</g>
<g fill="None" fill-opacity="0.0" stroke="#000000" stroke-opacity="0.00" stroke-width="0.3"><path d="
M 300.00 132.00 
L 300.00 0.00
L 168.00 0.00
C 234.52 6.98 293.01 65.41 300.00 132.00 Z"/>
</g>
<g fill="None" fill-opacity="0.0" stroke="#FEFEFE" stroke-opacity="1.00" stroke-width="0.3"><path d="
M 257.00 254.00 
C 257.49 254.08 258.00 254.00 258.00 254.00
C 258.50 254.00 259.00 254.00 259.00 254.00
C 268.05 243.51 276.35 233.07 283.00 221.00
C 272.93 212.24 260.12 222.42 250.25 214.75 C 240.38 207.09 240.15 197.38 244.67 186.67 C 249.20 175.96 246.97 160.28 246.00 149.00 C 245.02 137.72 241.77 127.15 236.93 117.07 C 232.08 107.00 229.82 100.22 221.75 91.25 C 213.68 82.28 216.60 69.83 215.00 57.00 C 213.40 44.17 199.37 51.15 191.08 58.08 C 182.79 65.01 170.56 57.06 160.01 55.99 C 149.46 54.92 134.01 54.08 123.68 58.68 C 113.35 63.27 104.77 62.92 95.75 71.75 C 86.74 80.58 77.38 68.02 66.03 70.03 C 54.67 72.03 64.37 90.99 65.22 99.78 C 66.07 108.57 58.25 119.99 55.93 129.93 C 53.60 139.86 50.14 154.81 51.00 166.00 C 51.86 177.19 53.67 190.27 57.68 200.32 C 61.69 210.38 65.41 218.29 72.75 226.25 C 80.10 234.21 86.67 238.84 96.31 243.69 C 105.94 248.55 116.82 251.12 128.00 253.00 C 139.18 254.88 154.82 253.33 166.00 252.00 C 177.18 250.66 188.89 247.85 198.92 243.92 C 208.96 239.99 214.72 234.50 223.00 228.00
C 230.29 239.32 243.26 251.75 257.00 254.00
M 204.00 107.00 
C 210.19 106.16 215.51 102.00 222.00 102.00
C 221.27 109.54 203.03 104.66 208.00 115.00
C 212.99 114.35 218.04 113.88 223.00 113.00
C 222.47 118.27 213.38 116.04 209.00 117.00
C 207.44 127.49 222.82 120.63 224.00 128.00
C 219.44 128.27 215.68 125.40 211.00 126.00
C 219.39 163.00 183.82 177.78 154.00 181.00 C 124.18 184.22 80.95 178.97 83.00 139.00
C 78.57 138.71 72.03 146.83 70.00 141.00
C 74.94 137.99 85.15 138.38 83.00 130.00
C 78.46 129.47 74.61 131.72 70.00 131.00
C 70.81 123.73 86.31 132.89 85.00 122.00
C 79.48 122.33 74.24 121.79 69.00 121.00
C 70.15 114.51 80.17 120.57 85.00 120.00
C 95.96 65.06 182.68 53.42 204.00 107.00 Z"/>
</g>
<g fill="None" fill-opacity="0.0" stroke="#57C508" stroke-opacity="1.00" stroke-width="0.3"><path d="
M 204.00 107.00 
C 182.68 53.42 95.96 65.06 85.00 120.00
C 80.17 120.57 70.15 114.51 69.00 121.00
C 74.24 121.79 79.48 122.33 85.00 122.00
C 86.31 132.89 70.81 123.73 70.00 131.00
C 74.61 131.72 78.46 129.47 83.00 130.00
C 85.15 138.38 74.94 137.99 70.00 141.00
C 72.03 146.83 78.57 138.71 83.00 139.00
C 80.95 178.97 124.18 184.22 154.00 181.00 C 183.82 177.78 219.39 163.00 211.00 126.00
C 215.68 125.40 219.44 128.27 224.00 128.00
C 222.82 120.63 207.44 127.49 209.00 117.00
C 213.38 116.04 222.47 118.27 223.00 113.00
C 218.04 113.88 212.99 114.35 208.00 115.00
C 203.03 104.66 221.27 109.54 222.00 102.00
C 215.51 102.00 210.19 106.16 204.00 107.00 Z"/>
</g>
<g fill="None" fill-opacity="0.0" stroke="#000000" stroke-opacity="0.00" stroke-width="0.3"><path d="
M 0.00 300.00 
L 132.00 300.00
C 65.48 293.02 6.99 234.59 0.00 168.00
L 0.00 300.00 Z"/>
</g>
<g fill="None" fill-opacity="0.0" stroke="#000000" stroke-opacity="0.00" stroke-width="0.3"><path d="
M 283.00 221.00 
C 276.35 233.07 268.05 243.51 259.00 254.00
C 257.22 256.06 255.50 258.77 253.00 260.00
C 252.60 260.20 252.00 260.00 252.00 260.00
C 231.12 284.44 197.39 294.13 168.00 300.00
L 300.00 300.00
L 300.00 168.00
C 296.75 185.94 292.07 204.54 283.00 221.00 Z"/>
</g>
<g fill="None" fill-opacity="0.0" stroke="#54C500" stroke-opacity="0.80" stroke-width="0.3"><path d="
M 252.00 260.00 
C 252.00 260.00 252.60 260.20 253.00 260.00
C 254.49 257.86 256.54 256.09 258.00 254.00
C 258.00 254.00 257.49 254.08 257.00 254.00
C 255.57 256.04 253.65 258.06 252.00 260.00 Z"/>
</g>
<g fill="None" fill-opacity="0.0" stroke="#4FBF00" stroke-opacity="0.06" stroke-width="0.3"><path d="
M 253.00 260.00 
C 255.50 258.77 257.22 256.06 259.00 254.00
C 259.00 254.00 258.50 254.00 258.00 254.00
C 256.54 256.09 254.49 257.86 253.00 260.00 Z"/>
</g>
<g fill="#000000" fill-opacity="0.00" stroke="None">
<path d="
M 0.00 132.00 
C 6.99 65.41 65.48 6.98 132.00 0.00
L 0.00 0.00
L 0.00 132.00 Z"/>
</g>
<g fill="#55C503" fill-opacity="0.99" stroke="None">
<path d="
M 0.00 132.00 
L 0.00 168.00
C 6.99 234.59 65.48 293.02 132.00 300.00
L 168.00 300.00
C 197.39 294.13 231.12 284.44 252.00 260.00
C 253.65 258.06 255.57 256.04 257.00 254.00
C 243.26 251.75 230.29 239.32 223.00 228.00
C 214.72 234.50 208.96 239.99 198.92 243.92 C 188.89 247.85 177.18 250.66 166.00 252.00 C 154.82 253.33 139.18 254.88 128.00 253.00 C 116.82 251.12 105.94 248.55 96.31 243.69 C 86.67 238.84 80.10 234.21 72.75 226.25 C 65.41 218.29 61.69 210.38 57.68 200.32 C 53.67 190.27 51.86 177.19 51.00 166.00 C 50.14 154.81 53.60 139.86 55.93 129.93 C 58.25 119.99 66.07 108.57 65.22 99.78 C 64.37 90.99 54.67 72.03 66.03 70.03 C 77.38 68.02 86.74 80.58 95.75 71.75 C 104.77 62.92 113.35 63.27 123.68 58.68 C 134.01 54.08 149.46 54.92 160.01 55.99 C 170.56 57.06 182.79 65.01 191.08 58.08 C 199.37 51.15 213.40 44.17 215.00 57.00 C 216.60 69.83 213.68 82.28 221.75 91.25 C 229.82 100.22 232.08 107.00 236.93 117.07 C 241.77 127.15 245.02 137.72 246.00 149.00 C 246.97 160.28 249.20 175.96 244.67 186.67 C 240.15 197.38 240.38 207.09 250.25 214.75 C 260.12 222.42 272.93 212.24 283.00 221.00
C 292.07 204.54 296.75 185.94 300.00 168.00
L 300.00 132.00
C 293.01 65.41 234.52 6.98 168.00 0.00
L 132.00 0.00
C 65.48 6.98 6.99 65.41 0.00 132.00 Z"/>
</g>
<g fill="#000000" fill-opacity="0.00" stroke="None">
<path d="
M 300.00 132.00 
L 300.00 0.00
L 168.00 0.00
C 234.52 6.98 293.01 65.41 300.00 132.00 Z"/>
</g>
<g fill="#FEFEFE" fill-opacity="1.00" stroke="None">
<path d="
M 257.00 254.00 
C 257.49 254.08 258.00 254.00 258.00 254.00
C 258.50 254.00 259.00 254.00 259.00 254.00
C 268.05 243.51 276.35 233.07 283.00 221.00
C 272.93 212.24 260.12 222.42 250.25 214.75 C 240.38 207.09 240.15 197.38 244.67 186.67 C 249.20 175.96 246.97 160.28 246.00 149.00 C 245.02 137.72 241.77 127.15 236.93 117.07 C 232.08 107.00 229.82 100.22 221.75 91.25 C 213.68 82.28 216.60 69.83 215.00 57.00 C 213.40 44.17 199.37 51.15 191.08 58.08 C 182.79 65.01 170.56 57.06 160.01 55.99 C 149.46 54.92 134.01 54.08 123.68 58.68 C 113.35 63.27 104.77 62.92 95.75 71.75 C 86.74 80.58 77.38 68.02 66.03 70.03 C 54.67 72.03 64.37 90.99 65.22 99.78 C 66.07 108.57 58.25 119.99 55.93 129.93 C 53.60 139.86 50.14 154.81 51.00 166.00 C 51.86 177.19 53.67 190.27 57.68 200.32 C 61.69 210.38 65.41 218.29 72.75 226.25 C 80.10 234.21 86.67 238.84 96.31 243.69 C 105.94 248.55 116.82 251.12 128.00 253.00 C 139.18 254.88 154.82 253.33 166.00 252.00 C 177.18 250.66 188.89 247.85 198.92 243.92 C 208.96 239.99 214.72 234.50 223.00 228.00
C 230.29 239.32 243.26 251.75 257.00 254.00
M 204.00 107.00 
C 210.19 106.16 215.51 102.00 222.00 102.00
C 221.27 109.54 203.03 104.66 208.00 115.00
C 212.99 114.35 218.04 113.88 223.00 113.00
C 222.47 118.27 213.38 116.04 209.00 117.00
C 207.44 127.49 222.82 120.63 224.00 128.00
C 219.44 128.27 215.68 125.40 211.00 126.00
C 219.39 163.00 183.82 177.78 154.00 181.00 C 124.18 184.22 80.95 178.97 83.00 139.00
C 78.57 138.71 72.03 146.83 70.00 141.00
C 74.94 137.99 85.15 138.38 83.00 130.00
C 78.46 129.47 74.61 131.72 70.00 131.00
C 70.81 123.73 86.31 132.89 85.00 122.00
C 79.48 122.33 74.24 121.79 69.00 121.00
C 70.15 114.51 80.17 120.57 85.00 120.00
C 95.96 65.06 182.68 53.42 204.00 107.00 Z"/>
</g>
<g fill="#57C508" fill-opacity="1.00" stroke="None">
<path d="
M 204.00 107.00 
C 182.68 53.42 95.96 65.06 85.00 120.00
C 80.17 120.57 70.15 114.51 69.00 121.00
C 74.24 121.79 79.48 122.33 85.00 122.00
C 86.31 132.89 70.81 123.73 70.00 131.00
C 74.61 131.72 78.46 129.47 83.00 130.00
C 85.15 138.38 74.94 137.99 70.00 141.00
C 72.03 146.83 78.57 138.71 83.00 139.00
C 80.95 178.97 124.18 184.22 154.00 181.00 C 183.82 177.78 219.39 163.00 211.00 126.00
C 215.68 125.40 219.44 128.27 224.00 128.00
C 222.82 120.63 207.44 127.49 209.00 117.00
C 213.38 116.04 222.47 118.27 223.00 113.00
C 218.04 113.88 212.99 114.35 208.00 115.00
C 203.03 104.66 221.27 109.54 222.00 102.00
C 215.51 102.00 210.19 106.16 204.00 107.00 Z"/>
</g>
<g fill="#000000" fill-opacity="0.00" stroke="None">
<path d="
M 0.00 300.00 
L 132.00 300.00
C 65.48 293.02 6.99 234.59 0.00 168.00
L 0.00 300.00 Z"/>
</g>
<g fill="#000000" fill-opacity="0.00" stroke="None">
<path d="
M 283.00 221.00 
C 276.35 233.07 268.05 243.51 259.00 254.00
C 257.22 256.06 255.50 258.77 253.00 260.00
C 252.60 260.20 252.00 260.00 252.00 260.00
C 231.12 284.44 197.39 294.13 168.00 300.00
L 300.00 300.00
L 300.00 168.00
C 296.75 185.94 292.07 204.54 283.00 221.00 Z"/>
</g>
<g fill="#54C500" fill-opacity="0.80" stroke="None">
<path d="
M 252.00 260.00 
C 252.00 260.00 252.60 260.20 253.00 260.00
C 254.49 257.86 256.54 256.09 258.00 254.00
C 258.00 254.00 257.49 254.08 257.00 254.00
C 255.57 256.04 253.65 258.06 252.00 260.00 Z"/>
</g>
<g fill="#4FBF00" fill-opacity="0.06" stroke="None">
<path d="
M 253.00 260.00 
C 255.50 258.77 257.22 256.06 259.00 254.00
C 259.00 254.00 258.50 254.00 258.00 254.00
C 256.54 256.09 254.49 257.86 253.00 260.00 Z"/>
</g>
</svg>